<svg xmlns="http://www.w3.org/2000/svg"
     width="241"
     height="240"
     fill="none"><mask id="a" width="169" height="180" x="36" y="30" maskUnits="userSpaceOnUse" style="mask-type:alpha"><path fill="#1D1D1B" d="M196.381 66.699A15.66 15.66 0 0 1 205 80.688v78.639a15.66 15.66 0 0 1-8.621 13.99l-68.839 34.64a15.66 15.66 0 0 1-14.08 0l-68.839-34.64A15.661 15.661 0 0 1 36 159.327v-78.64A15.661 15.661 0 0 1 44.62 66.7l68.838-34.654a15.661 15.661 0 0 1 14.084 0l68.839 34.654Z"/></mask><g mask="url(#a)"><path fill="#1967D2" d="m204.787 70.47-84.076 42.746-.25 98.025 76.557-38.354a14.07 14.07 0 0 0 7.769-12.58V70.471Z"/><g filter="url(#b)"><path fill="#4285F4" d="m199.597 72.856-80.946 40.733v94.198l73.2-36.835a14.07 14.07 0 0 0 7.746-12.569V72.856Z"/></g><path fill="#34A853" d="M114.16 31.447a14.069 14.069 0 0 1 12.601 0l78.025 39.076-84.326 42.63-84.325-42.63 78.025-39.076Z"/><g filter="url(#c)" opacity=".5"><path fill="#5DD17C" d="M114.22 35.693a14.072 14.072 0 0 1 12.56 0l67.373 33.601-73.653 37.079-73.654-37.079 67.374-33.601Z"/></g><path fill="#000" d="m36 70.47 84.5 42.652v98.335l-76.755-38.624A14.072 14.072 0 0 1 36 160.264V70.471Z"/><path fill="#4285F4" d="m36.135 70.47 84.576 42.746v98.275l-76.823-38.6a14.07 14.07 0 0 1-7.753-12.573V70.471Z" opacity=".2"/></g><path fill="#1D1D1B" d="M157.09 81.728a22.512 22.512 0 0 1 12.391 20.109v29.025a22.514 22.514 0 0 1-12.394 20.111l-26.466 13.318a22.511 22.511 0 0 1-20.24 0l-26.467-13.318a22.514 22.514 0 0 1-12.394-20.111v-29.025a22.513 22.513 0 0 1 12.39-20.109l26.468-13.323a22.513 22.513 0 0 1 20.246 0l26.466 13.323Z" opacity=".2" style="mix-blend-mode:multiply"/><path fill="#202124" d="M120.501 166.684v-53.568l-45.7-22.997a22.416 22.416 0 0 0-3.28 11.678v29.102c0 8.485 4.79 16.246 12.384 20.068l26.446 13.308a22.575 22.575 0 0 0 10.15 2.409Z"/><mask id="d" width="67" height="69" x="87" y="82" maskUnits="userSpaceOnUse" style="mask-type:alpha"><path fill="#E6F4EA" d="M146.901 94.347a11.258 11.258 0 0 1 6.195 10.054v23.907c0 4.254-2.398 8.144-6.197 10.056l-21.339 10.738a11.262 11.262 0 0 1-10.12 0l-21.338-10.738a11.257 11.257 0 0 1-6.197-10.056v-23.907c0-4.252 2.397-8.142 6.195-10.054l21.339-10.742a11.257 11.257 0 0 1 10.123 0l21.339 10.742Z"/></mask><g mask="url(#d)"><path fill="#E6F4EA" d="M146.901 94.347a11.258 11.258 0 0 1 6.195 10.054v23.907c0 4.254-2.398 8.144-6.197 10.056l-21.339 10.738a11.262 11.262 0 0 1-10.12 0l-21.338-10.738a11.257 11.257 0 0 1-6.197-10.056v-23.907c0-4.252 2.397-8.142 6.195-10.054l21.339-10.742a11.257 11.257 0 0 1 10.123 0l21.339 10.742Z"/><g filter="url(#e)" opacity=".4"><path fill="#000" d="m35.846 70.008 84.501 42.522v98.335l-76.755-38.624a14.072 14.072 0 0 1-7.746-12.569V70.008Z"/></g><g filter="url(#f)" opacity=".15"><path fill="#000" d="M205.001 69.639 120.5 112.16v98.336l76.755-38.624a14.072 14.072 0 0 0 7.746-12.569V69.639Z"/></g></g><defs><filter id="b" width="96.607" height="150.593" x="110.82" y="65.025" color-interpolation-filters="sRGB" filterUnits="userSpaceOnUse"><feFlood flood-opacity="0" result="BackgroundImageFix"/><feBlend in="SourceGraphic" in2="BackgroundImageFix" result="shape"/><feGaussianBlur result="effect1_foregroundBlur_18030_7832" stdDeviation="3.915"/></filter><filter id="c" width="155.138" height="79.991" x="42.931" y="30.298" color-interpolation-filters="sRGB" filterUnits="userSpaceOnUse"><feFlood flood-opacity="0" result="BackgroundImageFix"/><feBlend in="SourceGraphic" in2="BackgroundImageFix" result="shape"/><feGaussianBlur result="effect1_foregroundBlur_18030_7832" stdDeviation="1.958"/></filter><filter id="e" width="100.162" height="156.519" x="28.015" y="62.177" color-interpolation-filters="sRGB" filterUnits="userSpaceOnUse"><feFlood flood-opacity="0" result="BackgroundImageFix"/><feBlend in="SourceGraphic" in2="BackgroundImageFix" result="shape"/><feGaussianBlur result="effect1_foregroundBlur_18030_7832" stdDeviation="3.915"/></filter><filter id="f" width="100.162" height="156.519" x="112.67" y="61.808" color-interpolation-filters="sRGB" filterUnits="userSpaceOnUse"><feFlood flood-opacity="0" result="BackgroundImageFix"/><feBlend in="SourceGraphic" in2="BackgroundImageFix" result="shape"/><feGaussianBlur result="effect1_foregroundBlur_18030_7832" stdDeviation="3.915"/></filter></defs></svg>